<?xml version="1.0" encoding="utf-8"?>
<!-- Generator: Adobe Illustrator 22.0.1, SVG Export Plug-In . SVG Version: 6.00 Build 0)  -->
<svg version="1.1" id="Layer_1" xmlns="http://www.w3.org/2000/svg" xmlns:xlink="http://www.w3.org/1999/xlink" x="0px" y="0px"
	 viewBox="0 0 69.8 59.7" style="enable-background:new 0 0 69.8 59.7;" xml:space="preserve">
<style type="text/css">
	.st0{fill:#0B4548;}
</style>
<g>
	<polygon class="st0" points="0.8,31.1 0.8,31.1 0.8,31.1 	"/>
	<path class="st0" d="M69.7,31.6c-0.3-0.8-0.7-1.4-1.2-2c-0.5-1-1.5-1-2.3-1.1c-0.6,0-1-0.3-1.1-0.9c-0.2-0.5-0.3-1.1-0.5-1.6
		c-0.3-0.9-0.6-1.8-0.9-2.8c-0.3-1-0.7-2-1-3c-0.2-0.6-0.4-1.1-0.6-1.7c-0.4-1.1-0.7-2.2-1.1-3.3c0-0.1-0.1-0.2-0.1-0.4
		c-0.5-1.5-1-3-1.5-4.5c-0.6-1.9-1.4-3.7-2.5-5.5c-0.2-0.3-0.5-0.6-0.8-0.9c-0.7-0.7-1.5-1.5-2.4-2c-0.2-0.1-0.4-0.3-0.7-0.4
		c-1.2-0.6-2.5-0.4-3.7-0.7c-0.6-0.1-1.2,0-1.9,0c-8.2,0-16.4,0-24.6,0c-1.2,0-2.3,0.1-3.5,0.3c-0.9,0.2-1.7,0.5-2.5,0.8
		c-1.3,0.8-2.4,1.8-3.2,3.1c-0.2,0.4-0.4,0.7-0.6,1.1c-1.2,2.1-2,4.4-2.7,6.7c-0.4,1.8-1.2,3.4-1.7,5.2c-0.3,1.1-0.7,2.1-1,3.2
		c-0.1,0.3-0.2,0.6-0.3,0.9c-0.7,2.1-1.3,4.2-2.3,6.3c-0.5,0.2-0.9,0.1-1.4,0.2c-1.3,0.4-2.4,1-2.8,2.5c0,0.1,0,0.2-0.1,0.2
		c0,6.4,0,12.8,0,19.2c0.1,0.1,0.1,0.1,0,0.2c0.2,1.4,1.3,2,2.4,2.7c0.2,0.1,0.4,0.2,0.6,0.4c0.3,1.2,0,2.4,0.2,3.6
		c0.3,1.1,0.8,2.1,2.1,2.4c0.8,0.3,1.6,0.3,2.4,0.3c2.3,0,4.5,0,6.8,0c0.3,0.2,0.6,0,0.9-0.1c1.1-0.6,1.9-1.6,2.2-2.8
		c0-0.1,0-0.3,0-0.4c0-0.4,0-0.8,0-1.2c0-2,0-2,2-2c10,0,19.9,0,29.9,0c0.3,0,0.7,0,1,0c0.7,0,1,0.3,1,1c0,1,0,2,0.1,3
		c0.1,0.6,0.4,1.2,0.8,1.7c0.3,0.3,0.5,0.6,1,0.5c0.3,0.2,0.7,0.3,1,0.5c2.7,0,5.5,0,8.2,0c0.5-0.2,1-0.4,1.5-0.6
		c0.5-0.1,0.9-0.4,1-1c0.2-0.5,0.4-1,0.6-1.5c0.4-0.5,0.3-1.1,0.3-1.7c0-1.1,0-2.1,1.4-2.4c0.4-0.1,0.6-0.4,0.8-0.8
		c0.1-0.1,0.1-0.1,0.2-0.2c0.5-0.8,0.8-1.6,0.8-2.6C69.7,43.4,69.7,37.5,69.7,31.6z M11.2,47.1c-3.6,0-6.5-2.9-6.5-6.5
		c0-3.6,2.9-6.5,6.5-6.5s6.5,2.9,6.5,6.5C17.7,44.2,14.8,47.1,11.2,47.1z M13.7,28.5L13,27.8c0,0,4.2-12.7,5.5-16.7s3.2-3.2,3.2-3.2
		s19.7-0.2,25,0c5.3,0.2,4.9,2.5,4.9,2.5l6,17.7L57,28.5H13.7z M59,47.1c-3.6,0-6.5-2.9-6.5-6.5c0-3.6,2.9-6.5,6.5-6.5
		c3.6,0,6.5,2.9,6.5,6.5C65.5,44.2,62.6,47.1,59,47.1z"/>
</g>
</svg>
