<?xml version="1.0" encoding="utf-8"?>
<!-- Generator: Adobe Illustrator 22.0.1, SVG Export Plug-In . SVG Version: 6.00 Build 0)  -->
<svg version="1.1" id="Layer_1" xmlns="http://www.w3.org/2000/svg" xmlns:xlink="http://www.w3.org/1999/xlink" x="0px" y="0px"
	 viewBox="0 0 65 63.7" style="enable-background:new 0 0 65 63.7;" xml:space="preserve">
<style type="text/css">
	.st0{fill:#0B4548;}
</style>
<path class="st0" d="M41.2,40.2c-0.2,1.2-0.1,2.4-0.1,3.4c-0.1-0.2-0.3-0.8,0.5-0.8c0.4,0,0.8,0.5,1.3,0.4c2.6,1.4,5.5,1.9,8.2,3
	c2.9,1.1,5.8,2.4,8.4,4.2c1.7,1.1,2.8,2.6,3.9,4.3c1.7,1.5,1.5,3.5,1.8,5.5c0,1.1,0,2.2,0,3.3c-21.3,0-42.6,0-63.9,0
	c-1.3-2.3-0.5-4.3,0.8-6.3c0.8-1.7,1.5-3.5,2.7-5c0-0.5,0.3-0.8,0.8-0.8c2.9-1.9,5.7-3.9,9.1-4.8c0.8-0.2,1.6-0.2,2.2-0.8
	c0.1-0.1,0.2-0.1,0.3-0.1c0.6-0.3,1.4,0,1.8-0.7c0.7-0.2,1.5-0.5,2.2-0.7c3.3-1.1,4.4-3.5,2.8-6.5c-1.6-2.9-2.4-6.1-3.9-9
	c-1.3-2.5-1.4-5.7-2-8.5c-0.1-0.3-0.2-0.7-0.3-1c-0.2-0.1-0.2-0.1-0.2-0.2c0-0.1,0.1-0.1,0.1-0.1c0.1-2.2-0.1-4.4,0.3-6.7
	C19.4,4.4,28.8-0.5,35.2,0.7C45.1,2.6,50.6,11.4,48.5,20c-0.5,2.3-0.5,4.7-1.4,6.9c0.2,0.3,0.2,0.5-0.1,0.7c-0.5,1-1.1,2.1-1.6,3.1
	c-0.4,0.8-0.1,1.8-0.9,2.5"/>
</svg>
